# xmcd
#
# Track frame offsets: 
#        150
#        10873
#        23191
#        34788
#        54815
#        67778
#        92425
#        106644
#        132363
#        149390
#        171817
#        183375
#
# Disc length: 2573 seconds
#
# Revision: 1
# Processed by: cddbd v1.4PL0 Copyright (c) Steve Scherf et al.
# Submitted via: ExactAudioCopy v0.90b4
#
DISCID=8c0a0b0c
DTITLE=Lohues and The Louisiana BluesClub - Ja, boeh
DYEAR=2003
DGENRE=Blues
TTITLE0=Janine
TTITLE1=Stiekumste verdriet
TTITLE2=Ja boeh
TTITLE3=Regenblues
TTITLE4=Wachten op een hittegolf
TTITLE5=Prachtig mooi(mar wat he'j der an)
TTITLE6=Daor knap ie nie van op
TTITLE7=Van 't verstand
TTITLE8=Ach and wee
TTITLE9=Hoogste tied veur de blues
TTITLE10='t ien of 't ander
TTITLE11=Picknickweer
EXTD=YEAR: 2003
EXTT0=
EXTT1=
EXTT2=
EXTT3=
EXTT4=
EXTT5=
EXTT6=
EXTT7=
EXTT8=
EXTT9=
EXTT10=
EXTT11=
PLAYORDER=
